<svg xmlns="http://www.w3.org/2000/svg" xmlns:xlink="http://www.w3.org/1999/xlink" width="788" height="260pt" viewBox="0 0 590.74 260"><g id="graph0" class="graph" transform="scale(1 1) rotate(0) translate(4 256)"><title>%3</title><polygon fill="#fff" stroke="transparent" points="-4 4 -4 -256 586.744 -256 586.744 4 -4 4"/><g id="node1" class="node"><title>server_4</title><ellipse cx="276.348" cy="-234" fill="none" stroke="#000" rx="34.335" ry="18"/><text x="276.348" y="-229.8" fill="#000" font-family="Times,serif" font-size="14" text-anchor="middle">:server</text></g><g id="node2" class="node"><title>schema-provider_7</title><ellipse cx="276.348" cy="-162" fill="none" stroke="#000" rx="71.97" ry="18"/><text x="276.348" y="-157.8" fill="#000" font-family="Times,serif" font-size="14" text-anchor="middle">:schema-provider</text></g><g id="edge1" class="edge"><title>server_4-&gt;schema-provider_7</title><path fill="none" stroke="#000" d="M276.3475,-215.8314C276.3475,-208.131 276.3475,-198.9743 276.3475,-190.4166"/><polygon fill="#000" stroke="#000" points="279.848 -190.413 276.348 -180.413 272.848 -190.413 279.848 -190.413"/></g><g id="node3" class="node"><title>transaction-service_6</title><ellipse cx="79.347" cy="-90" fill="none" stroke="#000" rx="79.195" ry="18"/><text x="79.347" y="-85.8" fill="#000" font-family="Times,serif" font-size="14" text-anchor="middle">:transaction-service</text></g><g id="edge2" class="edge"><title>schema-provider_7-&gt;transaction-service_6</title><path fill="none" stroke="#000" d="M235.529,-147.0816C205.2972,-136.0324 163.8723,-120.8923 131.2816,-108.981"/><polygon fill="#000" stroke="#000" points="132.067 -105.542 121.473 -105.396 129.664 -112.116 132.067 -105.542"/></g><g id="node4" class="node"><title>account-creation-service_1</title><ellipse cx="276.348" cy="-90" fill="none" stroke="#000" rx="99.44" ry="18"/><text x="276.348" y="-85.8" fill="#000" font-family="Times,serif" font-size="14" text-anchor="middle">:account-creation-service</text></g><g id="edge3" class="edge"><title>schema-provider_7-&gt;account-creation-service_1</title><path fill="none" stroke="#000" d="M276.3475,-143.8314C276.3475,-136.131 276.3475,-126.9743 276.3475,-118.4166"/><polygon fill="#000" stroke="#000" points="279.848 -118.413 276.348 -108.413 272.848 -118.413 279.848 -118.413"/></g><g id="node5" class="node"><title>money-transfer-service_5</title><ellipse cx="488.348" cy="-90" fill="none" stroke="#000" rx="94.292" ry="18"/><text x="488.348" y="-85.8" fill="#000" font-family="Times,serif" font-size="14" text-anchor="middle">:money-transfer-service</text></g><g id="edge4" class="edge"><title>schema-provider_7-&gt;money-transfer-service_5</title><path fill="none" stroke="#000" d="M319.2489,-147.4297C351.7631,-136.3872 396.7308,-121.1151 432.1217,-109.0956"/><polygon fill="#000" stroke="#000" points="433.488 -112.328 441.831 -105.798 431.237 -105.7 433.488 -112.328"/></g><g id="node6" class="node"><title>db_3</title><ellipse cx="199.347" cy="-18" fill="none" stroke="#000" rx="27" ry="18"/><text x="199.347" y="-13.8" fill="#000" font-family="Times,serif" font-size="14" text-anchor="middle">:db</text></g><g id="edge5" class="edge"><title>transaction-service_6-&gt;db_3</title><path fill="none" stroke="#000" d="M107.4822,-73.1192C126.4996,-61.7088 151.5337,-46.6883 170.6652,-35.2094"/><polygon fill="#000" stroke="#000" points="172.489 -38.197 179.263 -30.05 168.888 -32.194 172.489 -38.197"/></g><g id="edge7" class="edge"><title>account-creation-service_1-&gt;db_3</title><path fill="none" stroke="#000" d="M257.3138,-72.2022C246.7479,-62.3224 233.5275,-49.9605 222.3814,-39.5382"/><polygon fill="#000" stroke="#000" points="224.749 -36.96 215.054 -32.687 219.968 -42.073 224.749 -36.96"/></g><g id="node7" class="node"><title>kafka-producer_2</title><ellipse cx="353.348" cy="-18" fill="none" stroke="#000" rx="66.649" ry="18"/><text x="353.348" y="-13.8" fill="#000" font-family="Times,serif" font-size="14" text-anchor="middle">:kafka-producer</text></g><g id="edge6" class="edge"><title>account-creation-service_1-&gt;kafka-producer_2</title><path fill="none" stroke="#000" d="M295.3812,-72.2022C305.0572,-63.1546 316.9592,-52.0255 327.4557,-42.2105"/><polygon fill="#000" stroke="#000" points="329.885 -44.731 334.798 -35.345 325.104 -39.618 329.885 -44.731"/></g><g id="edge8" class="edge"><title>money-transfer-service_5-&gt;kafka-producer_2</title><path fill="none" stroke="#000" d="M456.3544,-72.937C437.2868,-62.7676 412.9346,-49.7798 392.696,-38.9859"/><polygon fill="#000" stroke="#000" points="394.191 -35.817 383.72 -34.199 390.897 -41.993 394.191 -35.817"/></g></g></svg>