<svg xmlns="http://www.w3.org/2000/svg" xmlns:xlink="http://www.w3.org/1999/xlink" width="1716" height="1238" contentScriptType="application/ecmascript" contentStyleType="text/css" style="width:1716px;height:1238px" preserveAspectRatio="none" version="1.1" viewBox="0 0 1716 1238" zoomAndPan="magnify"><g><rect style="stroke:#a80036;stroke-width:3" width="250" height="100.938" x="367" y="651" fill="#FF0"/><rect style="stroke:#a80036;stroke-width:3" width="20" height="10" x="357" y="661" fill="#FF0"/><rect style="stroke:#a80036;stroke-width:3" width="20" height="10" x="357" y="731.938" fill="#FF0"/><text x="387" y="719.242" fill="#000" font-family="Roboto" font-size="52" lengthAdjust="spacingAndGlyphs" textLength="210">producer</text><rect style="stroke:#a80036;stroke-width:3" width="272" height="100.938" x="938" y="651" fill="#FF0"/><rect style="stroke:#a80036;stroke-width:3" width="20" height="10" x="928" y="661" fill="#FF0"/><rect style="stroke:#a80036;stroke-width:3" width="20" height="10" x="928" y="731.938" fill="#FF0"/><text x="958" y="719.242" fill="#000" font-family="Roboto" font-size="52" lengthAdjust="spacingAndGlyphs" textLength="232">consumer</text><rect style="stroke:#a80036;stroke-width:3" width="166" height="100.938" x="685" y="1117" fill="#D3D3D3"/><rect style="stroke:#a80036;stroke-width:3" width="20" height="10" x="675" y="1127" fill="#D3D3D3"/><rect style="stroke:#a80036;stroke-width:3" width="20" height="10" x="675" y="1197.938" fill="#D3D3D3"/><text x="705" y="1185.242" fill="#000" font-family="Roboto" font-size="52" lengthAdjust="spacingAndGlyphs" textLength="126">kafka</text><ellipse cx="74" cy="57" fill="#FFF" rx="16" ry="16" style="stroke:#a80036;stroke-width:4"/><path fill="none" d="M74,73 L74,127 M48,89 L100,89 M74,127 L48,157 M74,127 L100,157" style="stroke:#a80036;stroke-width:4"/><text x="12" y="211.242" fill="#000" font-family="Roboto" font-size="52" lengthAdjust="spacingAndGlyphs" textLength="124">client</text><rect style="stroke:#a80036;stroke-width:3" width="430" height="100.938" x="575" y="80" fill="#FF0"/><rect style="stroke:#a80036;stroke-width:3" width="20" height="10" x="565" y="90" fill="#FF0"/><rect style="stroke:#a80036;stroke-width:3" width="20" height="10" x="565" y="160.938" fill="#FF0"/><text x="595" y="148.242" fill="#000" font-family="Roboto" font-size="52" lengthAdjust="spacingAndGlyphs" textLength="390">schema-provider</text><path id="cl-sp" fill="none" d="M146.8404,130 C244.133,130 420.9154,130 564.5504,130" style="stroke:#a80036;stroke-width:2"/><polygon fill="#A80036" points="574.833 130 556.833 122 564.833 130 556.833 138 574.833 130" style="stroke:#a80036;stroke-width:2"/><polygon fill="#A80036" points="136.288 130 154.288 138 146.288 130 154.288 122 136.288 130" style="stroke:#a80036;stroke-width:2"/><text x="172.5" y="50.242" fill="#000" font-family="Roboto" font-size="52" lengthAdjust="spacingAndGlyphs" textLength="366">request transfer</text><text x="172.5" y="111.18" fill="#000" font-family="Roboto" font-size="52" lengthAdjust="spacingAndGlyphs" textLength="280">using server</text><path id="sp-&gt;p" fill="none" d="M628.5784,180.3562 C580.27,203.6792 532.5944,236.7912 504,283 C435.5358,393.6388 457.0484,554.2244 476.113,640.6034" style="stroke:#a80036;stroke-width:2"/><polygon fill="#A80036" points="478.42 650.761 482.235 631.437 476.205 641.01 466.632 634.98 478.42 650.761" style="stroke:#a80036;stroke-width:2"/><text x="536" y="333.242" fill="#000" font-family="Roboto" font-size="52" lengthAdjust="spacingAndGlyphs" textLength="408">executes function</text><text x="595" y="394.18" fill="#000" font-family="Roboto" font-size="52" lengthAdjust="spacingAndGlyphs" textLength="290">resulting in a</text><text x="607" y="455.117" fill="#000" font-family="Roboto" font-size="52" lengthAdjust="spacingAndGlyphs" textLength="278">transfer and</text><text x="506" y="516.055" fill="#000" font-family="Roboto" font-size="52" lengthAdjust="spacingAndGlyphs" textLength="468">creates subscription</text><text x="595" y="576.992" fill="#000" font-family="Roboto" font-size="52" lengthAdjust="spacingAndGlyphs" textLength="290">for the result</text><path id="p-&gt;kc" fill="none" d="M466.9192,751.1368 C433.783,825.2744 386.7836,965.2434 452,1057 C478.4368,1094.1956 591.4474,1127.1678 674.8094,1147.0906" style="stroke:#a80036;stroke-width:2"/><polygon fill="#A80036" points="684.821 1149.455 669.142 1137.532 675.089 1147.156 665.464 1153.103 684.821 1149.455" style="stroke:#a80036;stroke-width:2"/><text x="454" y="922.242" fill="#000" font-family="Roboto" font-size="52" lengthAdjust="spacingAndGlyphs" textLength="218">produces</text><text x="454" y="983.18" fill="#000" font-family="Roboto" font-size="52" lengthAdjust="spacingAndGlyphs" textLength="538">ConfirmMoneyTransfer</text><path id="c&lt;-kc" fill="none" d="M1077.4426,761.9492 C1078.5548,838.7896 1069.3506,971.1914 1002,1057 C964.8606,1104.3178 902.4886,1132.2384 851.4752,1148.1036" style="stroke:#a80036;stroke-width:2"/><polygon fill="#A80036" points="1077.209 751.027 1069.596 769.194 1077.423 761.025 1085.592 768.852 1077.209 751.027" style="stroke:#a80036;stroke-width:2"/><text x="1078" y="861.242" fill="#000" font-family="Roboto" font-size="52" lengthAdjust="spacingAndGlyphs" textLength="240">consumes</text><text x="1078" y="922.18" fill="#000" font-family="Roboto" font-size="52" lengthAdjust="spacingAndGlyphs" textLength="596">MoneyTransferConfirmed</text><text x="1078" y="983.117" fill="#000" font-family="Roboto" font-size="52" lengthAdjust="spacingAndGlyphs" textLength="86">and</text><text x="1078" y="1044.055" fill="#000" font-family="Roboto" font-size="52" lengthAdjust="spacingAndGlyphs" textLength="490">MoneyTransferFailed</text><path id="sp&lt;-c" fill="none" d="M891.8496,185.6288 C928.7776,210.713 967.4148,243.623 992,283 C1064.8484,399.6776 1075.1262,567.4674 1075.3002,650.5036" style="stroke:#a80036;stroke-width:2"/><polygon fill="#A80036" points="883.507 180.072 894.053 196.709 891.83 185.616 902.923 183.393 883.507 180.072" style="stroke:#a80036;stroke-width:2"/><text x="1074" y="425.242" fill="#000" font-family="Roboto" font-size="52" lengthAdjust="spacingAndGlyphs" textLength="618">send MoneyTransferResult</text><text x="1114" y="486.18" fill="#000" font-family="Roboto" font-size="52" lengthAdjust="spacingAndGlyphs" textLength="538">for active subscriptions</text></g></svg>