<svg xmlns="http://www.w3.org/2000/svg" xmlns:xlink="http://www.w3.org/1999/xlink" width="1906" height="1020" contentScriptType="application/ecmascript" contentStyleType="text/css" style="width:1906px;height:1020px" preserveAspectRatio="none" version="1.1" viewBox="0 0 1906 1020" zoomAndPan="magnify"><g><rect style="stroke:#a80036;stroke-width:2" width="20" height="496.688" x="880" y="463.75" fill="#FFF"/><line style="stroke:#a80036;stroke-width:2;stroke-dasharray:5,5" x1="84" x2="84" y1="192.938" y2="996.438"/><line style="stroke:#a80036;stroke-width:2;stroke-dasharray:5,5" x1="889" x2="889" y1="192.938" y2="996.438"/><line style="stroke:#a80036;stroke-width:2;stroke-dasharray:5,5" x1="1505" x2="1505" y1="192.938" y2="996.438"/><line style="stroke:#a80036;stroke-width:2;stroke-dasharray:5,5" x1="1822" x2="1822" y1="192.938" y2="996.438"/><text x="16" y="180.242" fill="#000" font-family="Roboto" font-size="52" lengthAdjust="spacingAndGlyphs" textLength="124">client</text><ellipse cx="84" cy="26" fill="#FFF" rx="16" ry="16" style="stroke:#a80036;stroke-width:4"/><path fill="none" d="M84,42 L84,96 M58,58 L110,58 M84,96 L58,126 M84,96 L110,126" style="stroke:#a80036;stroke-width:4"/><text x="675" y="180.242" fill="#000" font-family="Roboto" font-size="52" lengthAdjust="spacingAndGlyphs" textLength="418">GraphQL endpoint</text><ellipse cx="890" cy="100" fill="#FF0" rx="24" ry="24" style="stroke:#a80036;stroke-width:4"/><line style="stroke:#a80036;stroke-width:4" x1="866" x2="914" y1="128" y2="128"/><text x="1341" y="180.242" fill="#000" font-family="Roboto" font-size="52" lengthAdjust="spacingAndGlyphs" textLength="318">transactiondb</text><path fill="#ADD8E6" d="M1470,60 C1470,40 1506,40 1506,40 C1506,40 1542,40 1542,60 L1542,112 C1542,132 1506,132 1506,132 C1506,132 1470,132 1470,112 L1470,60" style="stroke:#000;stroke-width:3"/><path fill="none" d="M1470,60 C1470,80 1506,80 1506,80 C1506,80 1542,80 1542,60" style="stroke:#000;stroke-width:3"/><text x="1750" y="180.242" fill="#000" font-family="Roboto" font-size="52" lengthAdjust="spacingAndGlyphs" textLength="132">Kafka</text><path fill="none" d="M1781,76 L1781,124 M1781,100 L1815,100" style="stroke:#a80036;stroke-width:4"/><ellipse cx="1839" cy="100" fill="#D3D3D3" rx="24" ry="24" style="stroke:#a80036;stroke-width:4"/><rect style="stroke:#a80036;stroke-width:2" width="20" height="496.688" x="880" y="463.75" fill="#FFF"/><polygon fill="#A80036" points="866 277.875 886 285.875 866 293.875 874 285.875" style="stroke:#a80036;stroke-width:2"/><line style="stroke:#a80036;stroke-width:2" x1="84" x2="878" y1="285.875" y2="285.875"/><text x="98" y="269.18" fill="#000" font-family="Roboto" font-size="52" lengthAdjust="spacingAndGlyphs" textLength="758">Subscribe to get_account stream</text><polygon fill="#A80036" points="1482 366.813 1502 374.813 1482 382.813 1490 374.813" style="stroke:#a80036;stroke-width:2"/><line style="stroke:#a80036;stroke-width:2" x1="890" x2="1494" y1="374.813" y2="374.813"/><text x="904" y="358.117" fill="#000" font-family="Roboto" font-size="52" lengthAdjust="spacingAndGlyphs" textLength="568">Create account with uuid</text><polygon fill="#A80036" points="1798 455.75 1818 463.75 1798 471.75 1806 463.75" style="stroke:#a80036;stroke-width:2"/><line style="stroke:#a80036;stroke-width:2" x1="900" x2="1810" y1="463.75" y2="463.75"/><text x="914" y="447.055" fill="#000" font-family="Roboto" font-size="52" lengthAdjust="spacingAndGlyphs" textLength="830">Send an account creation command</text><polygon fill="#A80036" points="922 544.688 902 552.688 922 560.688 914 552.688" style="stroke:#a80036;stroke-width:2"/><line style="stroke:#a80036;stroke-width:2" x1="910" x2="1820" y1="552.688" y2="552.688"/><text x="934" y="535.992" fill="#000" font-family="Roboto" font-size="52" lengthAdjust="spacingAndGlyphs" textLength="874">Sends records about account creation</text><line style="stroke:#a80036;stroke-width:2" x1="900" x2="984" y1="641.625" y2="641.625"/><line style="stroke:#a80036;stroke-width:2" x1="984" x2="984" y1="641.625" y2="667.625"/><line style="stroke:#a80036;stroke-width:2" x1="902" x2="984" y1="667.625" y2="667.625"/><polygon fill="#A80036" points="922 659.625 902 667.625 922 675.625 914 667.625" style="stroke:#a80036;stroke-width:2"/><text x="914" y="624.93" fill="#000" font-family="Roboto" font-size="52" lengthAdjust="spacingAndGlyphs" textLength="294">Filter on uuid</text><polygon fill="#A80036" points="106 748.563 86 756.563 106 764.563 98 756.563" style="stroke:#a80036;stroke-width:2"/><line style="stroke:#a80036;stroke-width:2" x1="94" x2="878" y1="756.563" y2="756.563"/><text x="118" y="739.867" fill="#000" font-family="Roboto" font-size="52" lengthAdjust="spacingAndGlyphs" textLength="654">Send account creation result</text><line style="stroke:#a80036;stroke-width:2" x1="84" x2="168" y1="845.5" y2="845.5"/><line style="stroke:#a80036;stroke-width:2" x1="168" x2="168" y1="845.5" y2="871.5"/><line style="stroke:#a80036;stroke-width:2" x1="86" x2="168" y1="871.5" y2="871.5"/><polygon fill="#A80036" points="106 863.5 86 871.5 106 879.5 98 871.5" style="stroke:#a80036;stroke-width:2"/><text x="98" y="828.805" fill="#000" font-family="Roboto" font-size="52" lengthAdjust="spacingAndGlyphs" textLength="682">Store bank account and token</text><polygon fill="#A80036" points="866 952.438 886 960.438 866 968.438 874 960.438" style="stroke:#a80036;stroke-width:2"/><line style="stroke:#a80036;stroke-width:2" x1="84" x2="878" y1="960.438" y2="960.438"/><text x="98" y="943.742" fill="#000" font-family="Roboto" font-size="52" lengthAdjust="spacingAndGlyphs" textLength="546">End subscription with id</text></g></svg>