<svg xmlns="http://www.w3.org/2000/svg" xmlns:xlink="http://www.w3.org/1999/xlink" width="1340" height="1052" contentScriptType="application/ecmascript" contentStyleType="text/css" style="width:1340px;height:1052px" preserveAspectRatio="none" version="1.1" viewBox="0 0 1340 1052" zoomAndPan="magnify"><g><path fill="#ADD8E6" d="M1034,930 C1034,910 1175,910 1175,910 C1175,910 1316,910 1316,930 L1316,1008.9375 C1316,1028.9375 1175,1028.9375 1175,1028.9375 C1175,1028.9375 1034,1028.9375 1034,1008.9375 L1034,930" style="stroke:#000;stroke-width:3"/><path fill="none" d="M1034,930 C1034,950 1175,950 1175,950 C1175,950 1316,950 1316,930" style="stroke:#000;stroke-width:3"/><text x="1054" y="1006.242" fill="#000" font-family="Roboto" font-size="52" lengthAdjust="spacingAndGlyphs" textLength="242">balancedb</text><path fill="#ADD8E6" d="M846,468 C846,448 1025,448 1025,448 C1025,448 1204,448 1204,468 L1204,546.9375 C1204,566.9375 1025,566.9375 1025,566.9375 C1025,566.9375 846,566.9375 846,546.9375 L846,468" style="stroke:#000;stroke-width:3"/><path fill="none" d="M846,468 C846,488 1025,488 1025,488 C1025,488 1204,488 1204,468" style="stroke:#000;stroke-width:3"/><text x="866" y="544.242" fill="#000" font-family="Roboto" font-size="52" lengthAdjust="spacingAndGlyphs" textLength="318">transactiondb</text><rect style="stroke:#a80036;stroke-width:3" width="172" height="100.938" x="159" y="688" fill="#D3D3D3"/><rect style="stroke:#a80036;stroke-width:3" width="20" height="10" x="149" y="698" fill="#D3D3D3"/><rect style="stroke:#a80036;stroke-width:3" width="20" height="10" x="149" y="768.938" fill="#D3D3D3"/><text x="179" y="756.242" fill="#000" font-family="Roboto" font-size="52" lengthAdjust="spacingAndGlyphs" textLength="132">Kafka</text><rect style="stroke:#a80036;stroke-width:3" width="466" height="100.938" x="12" y="919" fill="#FF0"/><rect style="stroke:#a80036;stroke-width:3" width="20" height="10" x="2" y="929" fill="#FF0"/><rect style="stroke:#a80036;stroke-width:3" width="20" height="10" x="2" y="999.938" fill="#FF0"/><text x="32" y="987.242" fill="#000" font-family="Roboto" font-size="52" lengthAdjust="spacingAndGlyphs" textLength="426">Command handler</text><rect style="stroke:#a80036;stroke-width:3" width="458" height="100.938" x="16" y="457" fill="#FF0"/><rect style="stroke:#a80036;stroke-width:3" width="20" height="10" x="6" y="467" fill="#FF0"/><rect style="stroke:#a80036;stroke-width:3" width="20" height="10" x="6" y="537.938" fill="#FF0"/><text x="36" y="525.242" fill="#000" font-family="Roboto" font-size="52" lengthAdjust="spacingAndGlyphs" textLength="418">GraphQL endpoint</text><rect style="stroke:#a80036;stroke-width:3" width="402" height="100.938" x="378" y="59" fill="#90EE90"/><rect style="stroke:#a80036;stroke-width:3" width="20" height="10" x="368" y="69" fill="#90EE90"/><rect style="stroke:#a80036;stroke-width:3" width="20" height="10" x="368" y="139.938" fill="#90EE90"/><text x="398" y="127.242" fill="#000" font-family="Roboto" font-size="52" lengthAdjust="spacingAndGlyphs" textLength="362">Frontend server</text><ellipse cx="245" cy="36" fill="#FFF" rx="16" ry="16" style="stroke:#a80036;stroke-width:4"/><path fill="none" d="M245,52 L245,106 M219,68 L271,68 M245,106 L219,136 M245,106 L271,136" style="stroke:#a80036;stroke-width:4"/><text x="183" y="190.242" fill="#000" font-family="Roboto" font-size="52" lengthAdjust="spacingAndGlyphs" textLength="124">client</text><path id="cl&lt;-fs" fill="none" d="M318.0102,109 C337.8698,109 357.7294,109 377.5888,109" style="stroke:#a80036;stroke-width:2"/><polygon fill="#A80036" points="307.625 109 325.625 117 317.625 109 325.625 101 307.625 109" style="stroke:#a80036;stroke-width:2"/><path id="cl-ge" fill="none" d="M245,212.7302 C245,286.9828 245,384.397 245,446.366" style="stroke:#a80036;stroke-width:2"/><polygon fill="#A80036" points="245 456.754 253 438.754 245 446.754 237 438.754 245 456.754" style="stroke:#a80036;stroke-width:2"/><polygon fill="#A80036" points="245 202.313 237 220.313 245 212.313 253 220.313 245 202.313" style="stroke:#a80036;stroke-width:2"/><path id="ka-ch" fill="none" d="M245,798.4186 C245,832.4194 245,874.736 245,908.7152" style="stroke:#a80036;stroke-width:2"/><polygon fill="#A80036" points="245 918.974 253 900.974 245 908.974 237 900.974 245 918.974" style="stroke:#a80036;stroke-width:2"/><polygon fill="#A80036" points="245 788.124 237 806.124 245 798.124 253 806.124 245 788.124" style="stroke:#a80036;stroke-width:2"/><path id="ge-ka" fill="none" d="M245,567.4186 C245,601.4194 245,643.736 245,677.7152" style="stroke:#a80036;stroke-width:2"/><polygon fill="#A80036" points="245 687.974 253 669.974 245 677.974 237 669.974 245 687.974" style="stroke:#a80036;stroke-width:2"/><polygon fill="#A80036" points="245 557.124 237 575.124 245 567.124 253 575.124 245 557.124" style="stroke:#a80036;stroke-width:2"/><path id="ch-pgb" fill="none" d="M488.774,969 C658.0846,969 878.4142,969 1023.142,969" style="stroke:#a80036;stroke-width:2"/><polygon fill="#A80036" points="1033.43 969 1015.43 961 1023.43 969 1015.43 977 1033.43 969" style="stroke:#a80036;stroke-width:2"/><polygon fill="#A80036" points="478.478 969 496.478 977 488.478 969 496.478 961 478.478 969" style="stroke:#a80036;stroke-width:2"/><text x="515" y="949.242" fill="#000" font-family="Roboto" font-size="52" lengthAdjust="spacingAndGlyphs" textLength="482">executes commands</text><path id="ge-pgt" fill="none" d="M484.7502,507 C597.3934,507 729.7774,507 835.3052,507" style="stroke:#a80036;stroke-width:2"/><polygon fill="#A80036" points="845.432 507 827.432 499 835.432 507 827.432 515 845.432 507" style="stroke:#a80036;stroke-width:2"/><polygon fill="#A80036" points="474.281 507 492.281 515 484.281 507 492.281 499 474.281 507" style="stroke:#a80036;stroke-width:2"/><text x="511" y="487.242" fill="#000" font-family="Roboto" font-size="52" lengthAdjust="spacingAndGlyphs" textLength="298">derived state</text></g></svg>