<svg xmlns="http://www.w3.org/2000/svg" xmlns:xlink="http://www.w3.org/1999/xlink" width="1408" height="642" contentScriptType="application/ecmascript" contentStyleType="text/css" style="width:1408px;height:642px" preserveAspectRatio="none" version="1.1" viewBox="0 0 1408 642" zoomAndPan="magnify"><g><polygon fill="#FF0" points="172 32 778 32 792 104.938 816 104.938 816 230 172 230 172 32" style="stroke:#000;stroke-width:3"/><line style="stroke:#000;stroke-width:3" x1="172" x2="792" y1="104.938" y2="104.938"/><text x="180" y="84.242" fill="#000" font-family="Roboto" font-size="52" font-weight="bold" lengthAdjust="spacingAndGlyphs" textLength="594">nl.openweb.synchronizer</text><rect style="stroke:#a80036;stroke-width:3" width="250" height="100.938" x="189" y="114" fill="#FEFECE"/><rect style="stroke:#a80036;stroke-width:3" width="20" height="10" x="179" y="124" fill="#FEFECE"/><rect style="stroke:#a80036;stroke-width:3" width="20" height="10" x="179" y="194.938" fill="#FEFECE"/><text x="209" y="182.242" fill="#000" font-family="Roboto" font-size="52" lengthAdjust="spacingAndGlyphs" textLength="210">admin.clj</text><rect style="stroke:#a80036;stroke-width:3" width="290" height="100.938" x="509" y="114" fill="#FEFECE"/><rect style="stroke:#a80036;stroke-width:3" width="20" height="10" x="499" y="124" fill="#FEFECE"/><rect style="stroke:#a80036;stroke-width:3" width="20" height="10" x="499" y="194.938" fill="#FEFECE"/><text x="529" y="182.242" fill="#000" font-family="Roboto" font-size="52" lengthAdjust="spacingAndGlyphs" textLength="250">schema.clj</text><rect style="stroke:#a80036;stroke-width:3" width="340" height="100.938" x="12" y="520" fill="orange"/><rect style="stroke:#a80036;stroke-width:3" width="20" height="10" x="2" y="530" fill="orange"/><rect style="stroke:#a80036;stroke-width:3" width="20" height="10" x="2" y="600.938" fill="orange"/><text x="32" y="588.242" fill="#000" font-family="Roboto" font-size="52" lengthAdjust="spacingAndGlyphs" textLength="300">Kafka cluster</text><rect style="stroke:#a80036;stroke-width:3" width="412" height="100.938" x="582" y="520" fill="orange"/><rect style="stroke:#a80036;stroke-width:3" width="20" height="10" x="572" y="530" fill="orange"/><rect style="stroke:#a80036;stroke-width:3" width="20" height="10" x="572" y="600.938" fill="orange"/><text x="602" y="588.242" fill="#000" font-family="Roboto" font-size="52" lengthAdjust="spacingAndGlyphs" textLength="372">Schema registry</text><path id="admin-&gt;kc" fill="none" d="M226.6668,214.267 C206.3126,230.529 187.3022,250.5378 176,274 C139.9416,348.8542 151.813,447.1964 165.4616,509.5186" style="stroke:#a80036;stroke-width:2"/><polygon fill="#A80036" points="167.839 519.962 171.644 500.635 165.619 510.211 156.043 504.187 167.839 519.962" style="stroke:#a80036;stroke-width:2"/><text x="181" y="324.242" fill="#000" font-family="Roboto" font-size="52" lengthAdjust="spacingAndGlyphs" textLength="516">creates/deletes topics</text><text x="178" y="385.18" fill="#000" font-family="Roboto" font-size="52" lengthAdjust="spacingAndGlyphs" textLength="522">using the topology.edn</text><path id="schema-&gt;sr" fill="none" d="M682.5358,214.4526 C692.1502,232.8118 702.3652,253.9766 710,274 C740.2476,353.3294 763.1196,448.9224 776.0416,509.586" style="stroke:#a80036;stroke-width:2"/><polygon fill="#A80036" points="778.184 519.754 782.301 500.491 776.122 509.969 766.644 503.79 778.184 519.754" style="stroke:#a80036;stroke-width:2"/><text x="764" y="355.242" fill="#000" font-family="Roboto" font-size="52" lengthAdjust="spacingAndGlyphs" textLength="620">sets/updates the schema&apos;s</text><text x="809" y="416.18" fill="#000" font-family="Roboto" font-size="52" lengthAdjust="spacingAndGlyphs" textLength="530">using the schemas.edn</text></g></svg>