<svg xmlns="http://www.w3.org/2000/svg" xmlns:xlink="http://www.w3.org/1999/xlink" width="1720" height="924" contentScriptType="application/ecmascript" contentStyleType="text/css" style="width:1720px;height:924px" preserveAspectRatio="none" version="1.1" viewBox="0 0 1720 924" zoomAndPan="magnify"><g><polygon fill="#FFF" points="28 32 272 32 286 104.938 1216 104.938 1216 230 28 230 28 32" style="stroke:#000;stroke-width:3"/><line style="stroke:#000;stroke-width:3" x1="28" x2="286" y1="104.938" y2="104.938"/><text x="36" y="84.242" fill="#000" font-family="Roboto" font-size="52" font-weight="bold" lengthAdjust="spacingAndGlyphs" textLength="232">resources</text><polygon fill="#FEFECE" points="45 114 45 214.938 367 214.938 367 134 347 114 45 114" style="stroke:#000;stroke-width:3"/><path fill="#FEFECE" d="M347,114 L347,134 L367,134" style="stroke:#000;stroke-width:3"/><text x="65" y="182.242" fill="#000" font-family="Roboto" font-size="52" lengthAdjust="spacingAndGlyphs" textLength="282">logback.xml</text><polygon fill="#FEFECE" points="437 114 437 214.938 787 214.938 787 134 767 114 437 114" style="stroke:#000;stroke-width:3"/><path fill="#FEFECE" d="M767,114 L767,134 L787,134" style="stroke:#000;stroke-width:3"/><text x="457" y="182.242" fill="#000" font-family="Roboto" font-size="52" lengthAdjust="spacingAndGlyphs" textLength="310">schemas.edn</text><polygon fill="#FEFECE" points="857 114 857 214.938 1199 214.938 1199 134 1179 114 857 114" style="stroke:#000;stroke-width:3"/><path fill="#FEFECE" d="M1179,114 L1179,134 L1199,134" style="stroke:#000;stroke-width:3"/><text x="877" y="182.242" fill="#000" font-family="Roboto" font-size="52" lengthAdjust="spacingAndGlyphs" textLength="302">topology.edn</text><rect style="stroke:#a80036;stroke-width:3" width="314" height="100.938" x="455" y="458" fill="#FF0"/><rect style="stroke:#a80036;stroke-width:3" width="20" height="10" x="445" y="468" fill="#FF0"/><rect style="stroke:#a80036;stroke-width:3" width="20" height="10" x="445" y="538.938" fill="#FF0"/><text x="475" y="526.242" fill="#000" font-family="Roboto" font-size="52" lengthAdjust="spacingAndGlyphs" textLength="274">topology.jar</text><rect style="stroke:#a80036;stroke-width:3" width="256" height="100.938" x="250" y="802" fill="#FEFECE"/><rect style="stroke:#a80036;stroke-width:3" width="20" height="10" x="240" y="812" fill="#FEFECE"/><rect style="stroke:#a80036;stroke-width:3" width="20" height="10" x="240" y="882.938" fill="#FEFECE"/><text x="270" y="870.242" fill="#000" font-family="Roboto" font-size="52" lengthAdjust="spacingAndGlyphs" textLength="216">clients.clj</text><rect style="stroke:#a80036;stroke-width:3" width="476" height="100.938" x="608" y="802" fill="#FEFECE"/><rect style="stroke:#a80036;stroke-width:3" width="20" height="10" x="598" y="812" fill="#FEFECE"/><rect style="stroke:#a80036;stroke-width:3" width="20" height="10" x="598" y="882.938" fill="#FEFECE"/><text x="628" y="870.242" fill="#000" font-family="Roboto" font-size="52" lengthAdjust="spacingAndGlyphs" textLength="436">value_generator.clj</text><path id="tf-&gt;tj" fill="none" d="M1130.9858,214.2896 C1153.0468,230.1788 1173.4666,250.0026 1186,274 C1211.5132,322.8498 1221.1112,355.5212 1186,398 C1135.2602,459.3868 930.908,486.8504 780.417,498.912" style="stroke:#a80036;stroke-width:2"/><polygon fill="#A80036" points="769.678 499.754 788.248 506.322 779.647 498.972 786.997 490.371 769.678 499.754" style="stroke:#a80036;stroke-width:2"/><text x="1238" y="324.242" fill="#000" font-family="Roboto" font-size="52" lengthAdjust="spacingAndGlyphs" textLength="430">Provides topic info</text><text x="1210" y="385.18" fill="#000" font-family="Roboto" font-size="52" lengthAdjust="spacingAndGlyphs" textLength="486">links topic to schema</text><path id="lb-&gt;tj" fill="none" d="M160.674,214.1004 C147.496,231.7634 134.8218,252.5856 128,274 C111.2718,326.511 93.619,354.9282 128,398 C167.4118,447.374 320.4572,476.2752 444.0362,491.9582" style="stroke:#a80036;stroke-width:2"/><polygon fill="#A80036" points="454.385 493.25 437.515 483.082 444.462 492.011 435.533 498.959 454.385 493.25" style="stroke:#a80036;stroke-width:2"/><text x="130" y="354.242" fill="#000" font-family="Roboto" font-size="52" lengthAdjust="spacingAndGlyphs" textLength="456">Set logging defaults</text><path id="sc-&gt;tj" fill="none" d="M608.6754,214.3566 C607.592,233.0752 606.5314,254.4992 606,274 C604.4986,329.0906 604.4986,342.9094 606,398 C606.4318,413.8444 607.2128,430.9584 608.0718,446.8594" style="stroke:#a80036;stroke-width:2"/><polygon fill="#A80036" points="608.675 457.643 615.656 439.224 608.116 447.659 599.682 440.119 608.675 457.643" style="stroke:#a80036;stroke-width:2"/><text x="608" y="324.242" fill="#000" font-family="Roboto" font-size="52" lengthAdjust="spacingAndGlyphs" textLength="568">Compiled to java objects</text><text x="620" y="385.18" fill="#000" font-family="Roboto" font-size="52" lengthAdjust="spacingAndGlyphs" textLength="544">Able to get all schema&apos;s</text><path id="tj&lt;-cl" fill="none" d="M445.4006,554.0112 C416.3026,569.6088 389.7222,590.3824 372,618 C336.6646,673.0654 348.1476,751.4212 361.5362,801.993" style="stroke:#a80036;stroke-width:2"/><polygon fill="#A80036" points="454.505 549.335 434.838 550.443 445.61 553.904 442.149 564.675 454.505 549.335" style="stroke:#a80036;stroke-width:2"/><text x="374" y="668.242" fill="#000" font-family="Roboto" font-size="52" lengthAdjust="spacingAndGlyphs" textLength="384">Clojure producer</text><text x="401" y="729.18" fill="#000" font-family="Roboto" font-size="52" lengthAdjust="spacingAndGlyphs" textLength="330">and consumer</text><path id="tj&lt;-vg" fill="none" d="M711.9816,564.2104 C732.7018,579.501 752.8164,597.5724 768,618 C808.8732,672.9894 829.1236,750.6482 838.5636,801.1596" style="stroke:#a80036;stroke-width:2"/><polygon fill="#A80036" points="703.708 558.269 713.662 575.267 711.831 564.102 722.995 562.271 703.708 558.269" style="stroke:#a80036;stroke-width:2"/><text x="824" y="668.242" fill="#000" font-family="Roboto" font-size="52" lengthAdjust="spacingAndGlyphs" textLength="378">Util functions for</text><text x="860" y="729.18" fill="#000" font-family="Roboto" font-size="52" lengthAdjust="spacingAndGlyphs" textLength="306">iban and uuid</text></g></svg>