<svg xmlns="http://www.w3.org/2000/svg" xmlns:xlink="http://www.w3.org/1999/xlink" width="1970" height="930" contentScriptType="application/ecmascript" contentStyleType="text/css" style="width:1970px;height:930px" preserveAspectRatio="none" version="1.1" viewBox="0 0 1970 930" zoomAndPan="magnify"><g><rect style="stroke:#a80036;stroke-width:2" width="20" height="381.75" x="956" y="489.75" fill="#FFF"/><line style="stroke:#a80036;stroke-width:2;stroke-dasharray:5,5" x1="84" x2="84" y1="192.938" y2="907.5"/><line style="stroke:#a80036;stroke-width:2;stroke-dasharray:5,5" x1="965" x2="965" y1="192.938" y2="907.5"/><line style="stroke:#a80036;stroke-width:2;stroke-dasharray:5,5" x1="1886" x2="1886" y1="192.938" y2="907.5"/><text x="16" y="180.242" fill="#000" font-family="Roboto" font-size="52" lengthAdjust="spacingAndGlyphs" textLength="124">client</text><ellipse cx="84" cy="26" fill="#FFF" rx="16" ry="16" style="stroke:#a80036;stroke-width:4"/><path fill="none" d="M84,42 L84,96 M58,58 L110,58 M84,96 L58,126 M84,96 L110,126" style="stroke:#a80036;stroke-width:4"/><text x="751" y="180.242" fill="#000" font-family="Roboto" font-size="52" lengthAdjust="spacingAndGlyphs" textLength="418">GraphQL endpoint</text><ellipse cx="966" cy="100" fill="#FF0" rx="24" ry="24" style="stroke:#a80036;stroke-width:4"/><line style="stroke:#a80036;stroke-width:4" x1="942" x2="990" y1="128" y2="128"/><text x="1814" y="180.242" fill="#000" font-family="Roboto" font-size="52" lengthAdjust="spacingAndGlyphs" textLength="132">Kafka</text><path fill="none" d="M1845,76 L1845,124 M1845,100 L1879,100" style="stroke:#a80036;stroke-width:4"/><ellipse cx="1903" cy="100" fill="#D3D3D3" rx="24" ry="24" style="stroke:#a80036;stroke-width:4"/><rect style="stroke:#a80036;stroke-width:2" width="20" height="381.75" x="956" y="489.75" fill="#FFF"/><line style="stroke:#a80036;stroke-width:2" x1="84" x2="168" y1="285.875" y2="285.875"/><line style="stroke:#a80036;stroke-width:2" x1="168" x2="168" y1="285.875" y2="311.875"/><line style="stroke:#a80036;stroke-width:2" x1="86" x2="168" y1="311.875" y2="311.875"/><polygon fill="#A80036" points="106 303.875 86 311.875 106 319.875 98 311.875" style="stroke:#a80036;stroke-width:2"/><text x="98" y="269.18" fill="#000" font-family="Roboto" font-size="52" lengthAdjust="spacingAndGlyphs" textLength="750">Fill in amount, to, and description</text><polygon fill="#A80036" points="942 392.813 962 400.813 942 408.813 950 400.813" style="stroke:#a80036;stroke-width:2"/><line style="stroke:#a80036;stroke-width:2" x1="84" x2="954" y1="400.813" y2="400.813"/><text x="98" y="384.117" fill="#000" font-family="Roboto" font-size="52" lengthAdjust="spacingAndGlyphs" textLength="834">Subscribe to money_transfer stream</text><polygon fill="#A80036" points="1862 481.75 1882 489.75 1862 497.75 1870 489.75" style="stroke:#a80036;stroke-width:2"/><line style="stroke:#a80036;stroke-width:2" x1="976" x2="1874" y1="489.75" y2="489.75"/><text x="990" y="473.055" fill="#000" font-family="Roboto" font-size="52" lengthAdjust="spacingAndGlyphs" textLength="764">Send a transfer money command</text><polygon fill="#A80036" points="998 570.688 978 578.688 998 586.688 990 578.688" style="stroke:#a80036;stroke-width:2"/><line style="stroke:#a80036;stroke-width:2" x1="986" x2="1884" y1="578.688" y2="578.688"/><text x="1010" y="561.992" fill="#000" font-family="Roboto" font-size="52" lengthAdjust="spacingAndGlyphs" textLength="862">Sends records about money transfers</text><line style="stroke:#a80036;stroke-width:2" x1="976" x2="1060" y1="667.625" y2="667.625"/><line style="stroke:#a80036;stroke-width:2" x1="1060" x2="1060" y1="667.625" y2="693.625"/><line style="stroke:#a80036;stroke-width:2" x1="978" x2="1060" y1="693.625" y2="693.625"/><polygon fill="#A80036" points="998 685.625 978 693.625 998 701.625 990 693.625" style="stroke:#a80036;stroke-width:2"/><text x="990" y="650.93" fill="#000" font-family="Roboto" font-size="52" lengthAdjust="spacingAndGlyphs" textLength="294">Filter on uuid</text><polygon fill="#A80036" points="106 774.563 86 782.563 106 790.563 98 782.563" style="stroke:#a80036;stroke-width:2"/><line style="stroke:#a80036;stroke-width:2" x1="94" x2="954" y1="782.563" y2="782.563"/><text x="118" y="765.867" fill="#000" font-family="Roboto" font-size="52" lengthAdjust="spacingAndGlyphs" textLength="616">Send money transfer result</text><polygon fill="#A80036" points="942 863.5 962 871.5 942 879.5 950 871.5" style="stroke:#a80036;stroke-width:2"/><line style="stroke:#a80036;stroke-width:2" x1="84" x2="954" y1="871.5" y2="871.5"/><text x="98" y="854.805" fill="#000" font-family="Roboto" font-size="52" lengthAdjust="spacingAndGlyphs" textLength="546">End subscription with id</text></g></svg>