<svg xmlns="http://www.w3.org/2000/svg" xmlns:xlink="http://www.w3.org/1999/xlink" width="2042" height="932" contentScriptType="application/ecmascript" contentStyleType="text/css" style="width:2042px;height:932px" preserveAspectRatio="none" version="1.1" viewBox="0 0 2042 932" zoomAndPan="magnify"><g><ellipse cx="74" cy="57" fill="#FFF" rx="16" ry="16" style="stroke:#a80036;stroke-width:4"/><path fill="none" d="M74,73 L74,127 M48,89 L100,89 M74,127 L48,157 M74,127 L100,157" style="stroke:#a80036;stroke-width:4"/><text x="12" y="211.242" fill="#000" font-family="Roboto" font-size="52" lengthAdjust="spacingAndGlyphs" textLength="124">client</text><path fill="#ADD8E6" d="M1479,91 C1479,71 1628,71 1628,71 C1628,71 1777,71 1777,91 L1777,169.9375 C1777,189.9375 1628,189.9375 1628,189.9375 C1628,189.9375 1479,189.9375 1479,169.9375 L1479,91" style="stroke:#000;stroke-width:3"/><path fill="none" d="M1479,91 C1479,111 1628,111 1628,111 C1628,111 1777,111 1777,91" style="stroke:#000;stroke-width:3"/><text x="1499" y="167.242" fill="#000" font-family="Roboto" font-size="52" lengthAdjust="spacingAndGlyphs" textLength="258">transaction</text><rect style="stroke:#a80036;stroke-width:3" width="272" height="100.938" x="1122" y="467" fill="#FF0"/><rect style="stroke:#a80036;stroke-width:3" width="20" height="10" x="1112" y="477" fill="#FF0"/><rect style="stroke:#a80036;stroke-width:3" width="20" height="10" x="1112" y="547.938" fill="#FF0"/><text x="1142" y="535.242" fill="#000" font-family="Roboto" font-size="52" lengthAdjust="spacingAndGlyphs" textLength="232">consumer</text><rect style="stroke:#a80036;stroke-width:3" width="166" height="100.938" x="1175" y="811" fill="#D3D3D3"/><rect style="stroke:#a80036;stroke-width:3" width="20" height="10" x="1165" y="821" fill="#D3D3D3"/><rect style="stroke:#a80036;stroke-width:3" width="20" height="10" x="1165" y="891.938" fill="#D3D3D3"/><text x="1195" y="879.242" fill="#000" font-family="Roboto" font-size="52" lengthAdjust="spacingAndGlyphs" textLength="126">kafka</text><rect style="stroke:#a80036;stroke-width:3" width="430" height="100.938" x="677" y="80" fill="#FF0"/><rect style="stroke:#a80036;stroke-width:3" width="20" height="10" x="667" y="90" fill="#FF0"/><rect style="stroke:#a80036;stroke-width:3" width="20" height="10" x="667" y="160.938" fill="#FF0"/><text x="697" y="148.242" fill="#000" font-family="Roboto" font-size="52" lengthAdjust="spacingAndGlyphs" textLength="390">schema-provider</text><path id="cl-sp" fill="none" d="M146.4682,130 C261.7354,130 491.6048,130 665.7886,130" style="stroke:#a80036;stroke-width:2"/><polygon fill="#A80036" points="676.13 130 658.13 122 666.13 130 658.13 138 676.13 130" style="stroke:#a80036;stroke-width:2"/><polygon fill="#A80036" points="136.154 130 154.154 138 146.154 130 154.154 122 136.154 130" style="stroke:#a80036;stroke-width:2"/><text x="172.5" y="50.242" fill="#000" font-family="Roboto" font-size="52" lengthAdjust="spacingAndGlyphs" textLength="468">queries or subscribe</text><text x="172.5" y="111.18" fill="#000" font-family="Roboto" font-size="52" lengthAdjust="spacingAndGlyphs" textLength="342">to transactions</text><path id="sp-&gt;tr" fill="none" d="M1107.8512,130 C1223.317,130 1363.0376,130 1468.5818,130" style="stroke:#a80036;stroke-width:2"/><polygon fill="#A80036" points="1478.687 130 1460.687 122 1468.687 130 1460.687 138 1478.687 130" style="stroke:#a80036;stroke-width:2"/><text x="1144" y="50.242" fill="#000" font-family="Roboto" font-size="52" lengthAdjust="spacingAndGlyphs" textLength="278">sql query on</text><text x="1144" y="111.18" fill="#000" font-family="Roboto" font-size="52" lengthAdjust="spacingAndGlyphs" textLength="298">derived state</text><path id="tr&lt;-c" fill="none" d="M1616.6716,199.6666 C1603.3238,261.2982 1575.5102,350.0424 1520,407 C1485.9128,441.976 1439.0074,466.3508 1394.2958,483.0932" style="stroke:#a80036;stroke-width:2"/><polygon fill="#A80036" points="1618.845 189.254 1607.335 205.239 1616.802 199.043 1622.998 208.509 1618.845 189.254" style="stroke:#a80036;stroke-width:2"/><text x="1594" y="363.242" fill="#000" font-family="Roboto" font-size="52" lengthAdjust="spacingAndGlyphs" textLength="424">insert transactions</text><path id="c&lt;-kc" fill="none" d="M1258,577.3168 C1258,643.6364 1258,748.9828 1258,810.919" style="stroke:#a80036;stroke-width:2"/><polygon fill="#A80036" points="1258 567.021 1250 585.021 1258 577.021 1266 585.021 1258 567.021" style="stroke:#a80036;stroke-width:2"/><text x="1335" y="677.242" fill="#000" font-family="Roboto" font-size="52" lengthAdjust="spacingAndGlyphs" textLength="240">consumes</text><text x="1260" y="738.18" fill="#000" font-family="Roboto" font-size="52" lengthAdjust="spacingAndGlyphs" textLength="390">BalanceChanged</text><path id="c-&gt;sp" fill="none" d="M1121.8332,492.6718 C1067.9322,476.6506 1009.5278,450.2714 970,407 C915.5314,347.3728 898.7502,252.6034 893.7792,190.8462" style="stroke:#a80036;stroke-width:2"/><polygon fill="#A80036" points="893.03 180.473 886.348 199.002 893.751 190.447 902.306 197.85 893.03 180.473" style="stroke:#a80036;stroke-width:2"/><text x="1050" y="333.242" fill="#000" font-family="Roboto" font-size="52" lengthAdjust="spacingAndGlyphs" textLength="382">send transaction</text><text x="972" y="394.18" fill="#000" font-family="Roboto" font-size="52" lengthAdjust="spacingAndGlyphs" textLength="538">for active subscriptions</text></g></svg>